<svg width="1440" height="900" viewBox="0 0 1440 900" fill="none" xmlns="http://www.w3.org/2000/svg">
<g id="MacBook Pro - 1" clip-path="url(#clip0_0_1)">
<rect width="1440" height="900" fill="white"/>
<g id="leg_4">
<path id="Vector 1" d="M375 152.5C473.167 150 669.5 182.8 669.5 334" stroke="black" stroke-width="15"/>
<path id="Vector 2" d="M964 152.129C865.833 149.629 669.5 182.429 669.5 333.629" stroke="black" stroke-width="15"/>
</g>
<g id="leg_3">
<path id="Vector 1_2" d="M375 334.5C473.167 332 669.5 364.8 669.5 516" stroke="black" stroke-width="15"/>
<path id="Vector 2_2" d="M964 334.129C865.833 331.629 669.5 364.429 669.5 515.629" stroke="black" stroke-width="15"/>
</g>
<g id="leg_2">
<path id="Vector 1_3" d="M375 536.5C473.167 534 669.5 566.8 669.5 718" stroke="black" stroke-width="15"/>
<path id="Vector 2_3" d="M964 536.129C865.833 533.629 669.5 566.429 669.5 717.629" stroke="black" stroke-width="15"/>
</g>
<g id="leg_1">
<path id="Vector 1_4" d="M375 718.5C473.167 716 669.5 748.8 669.5 900" stroke="black" stroke-width="15"/>
<path id="Vector 2_4" d="M964 718.129C865.833 715.629 669.5 748.429 669.5 899.629" stroke="black" stroke-width="15"/>
</g>
</g>
<defs>
<clipPath id="clip0_0_1">
<rect width="1440" height="900" fill="white"/>
</clipPath>
</defs>
</svg>
