<?xml version="1.0" standalone="no"?>
<!DOCTYPE svg PUBLIC "-//W3C//DTD SVG 20010904//EN"
 "http://www.w3.org/TR/2001/REC-SVG-20010904/DTD/svg10.dtd">
<svg version="1.0" xmlns="http://www.w3.org/2000/svg"
 width="839.000000pt" height="839.000000pt" viewBox="0 0 839.000000 839.000000"
 preserveAspectRatio="xMidYMid meet">
<metadata>
Created by potrace 1.14, written by Peter Selinger 2001-2017
</metadata>
<g transform="translate(0.000000,839.000000) scale(0.100000,-0.100000)"
fill="#000000" stroke="none">
<path d="M360 6115 c-1 -69 -1 -181 -1 -250 0 -69 0 -147 1 -175 l0 -50 450 0
450 0 0 300 0 300 -450 0 -450 0 0 -125z"/>
<path d="M2948 6234 c-3 -2 -24 -6 -49 -10 -82 -11 -94 -13 -154 -28 -121 -29
-268 -79 -315 -106 -8 -4 -49 -25 -90 -46 -71 -35 -221 -129 -265 -166 -11 -9
-40 -33 -65 -53 -106 -87 -234 -221 -315 -330 -16 -22 -33 -42 -36 -45 -34
-25 -247 -409 -274 -491 -4 -13 -8 -26 -10 -29 -18 -41 -58 -166 -84 -260
l-29 -105 -1 453 -1 452 -37 0 c-21 1 -78 1 -128 0 -49 0 -94 -1 -100 -1 -71
-1 -238 0 -265 2 -19 0 -39 1 -45 0 -20 -1 -120 -2 -127 -1 -8 1 -114 2 -167
1 -22 -1 -30 -6 -30 -18 1 -10 0 -839 0 -1843 -1 -1004 -1 -1835 -1 -1847 l0
-23 450 0 450 0 0 837 c0 460 2 834 4 832 3 -2 7 -17 10 -32 3 -15 12 -54 22
-85 9 -31 17 -61 19 -67 1 -5 5 -17 8 -25 3 -8 11 -33 18 -55 7 -22 19 -56 27
-75 9 -19 17 -41 18 -47 10 -55 240 -468 273 -493 4 -3 18 -21 31 -40 40 -58
150 -180 219 -244 24 -23 53 -50 65 -61 40 -39 154 -125 164 -125 6 0 12 -3
14 -8 2 -6 77 -54 153 -99 75 -44 252 -118 350 -145 108 -30 102 -29 190 -43
28 -4 59 -10 70 -13 28 -7 337 -12 348 -5 4 3 32 6 60 8 85 4 277 49 277 65 0
8 -25 128 -36 173 -4 16 -6 28 -19 87 -3 14 -8 35 -10 47 -3 13 -7 33 -10 45
-7 34 -35 159 -42 188 -4 14 -8 32 -9 40 -1 8 -9 44 -18 80 -8 36 -17 76 -20
90 -3 14 -12 59 -21 100 -9 41 -18 82 -19 90 -3 17 -51 23 -77 9 -19 -9 -133
-22 -204 -22 -269 -1 -545 132 -734 353 -90 106 -105 128 -167 244 -30 56 -94
206 -89 206 2 0 -2 18 -10 40 -8 22 -14 42 -15 45 0 3 0 6 -1 8 -2 6 -7 35
-13 67 -3 19 -8 46 -11 60 -12 58 -19 261 -11 340 10 103 18 153 27 178 6 15
10 28 9 30 -4 7 15 76 42 152 35 96 89 211 122 255 13 17 25 38 29 48 3 9 11
17 17 17 5 0 10 6 10 14 0 26 193 213 275 266 107 69 221 120 305 136 8 2 37
8 64 13 26 6 52 9 56 6 5 -3 11 -2 13 2 6 10 131 9 207 -1 302 -40 571 -230
758 -538 22 -36 38 -69 35 -72 -4 -3 -1 -6 5 -6 7 0 12 -8 12 -18 0 -10 4 -22
9 -28 10 -10 73 -181 76 -204 1 -8 4 -26 8 -40 31 -113 46 -327 32 -460 -6
-68 -17 -145 -21 -151 -2 -3 -6 -19 -8 -35 -9 -45 -43 -159 -55 -181 -5 -11
-7 -23 -4 -27 3 -3 0 -6 -7 -6 -7 0 -11 -3 -7 -6 3 -3 -12 -40 -34 -82 -21
-43 -39 -82 -39 -88 0 -6 46 -48 103 -94 56 -46 107 -89 113 -96 6 -8 16 -14
22 -14 6 0 12 -3 14 -8 2 -6 101 -89 181 -152 11 -8 24 -20 31 -25 31 -29 227
-185 232 -185 5 0 91 69 122 98 8 7 30 25 50 40 21 15 43 32 50 39 7 7 34 29
60 50 26 21 49 40 52 43 3 3 37 30 75 61 39 31 80 65 92 75 12 11 36 30 54 44
18 14 58 46 89 73 l57 48 -43 82 c-23 45 -44 91 -46 102 -1 11 -6 22 -9 25 -6
5 -44 130 -52 170 -3 14 -7 34 -10 45 -18 77 -29 187 -27 285 1 41 1 82 1 90
1 49 23 188 44 270 52 204 147 385 281 537 50 56 85 88 191 173 6 5 29 19 50
31 21 11 52 29 68 39 63 37 194 79 303 96 43 7 191 7 242 0 328 -45 619 -265
790 -598 27 -54 50 -102 50 -107 0 -5 7 -25 15 -45 8 -20 16 -39 16 -43 1 -5
6 -19 11 -33 9 -25 34 -135 45 -200 3 -19 7 -110 8 -202 3 -143 0 -183 -20
-275 -25 -119 -49 -207 -64 -238 -26 -54 -61 -137 -61 -145 0 -6 -4 -10 -10
-10 -5 0 -10 -4 -10 -10 0 -17 -65 -120 -102 -161 -10 -10 -18 -22 -18 -25 0
-7 -162 -167 -191 -190 -38 -29 -176 -107 -222 -125 -155 -63 -295 -82 -467
-65 -30 3 -70 9 -87 15 -18 5 -33 8 -33 5 0 -3 -9 0 -20 6 -11 6 -20 7 -21 3
-1 -9 -2 -18 -18 -95 -7 -32 -12 -60 -12 -63 0 -2 -5 -19 -10 -37 -5 -18 -12
-45 -14 -60 -3 -16 -13 -58 -21 -95 -9 -38 -18 -77 -20 -88 -1 -11 -3 -20 -4
-20 -1 0 -3 -7 -5 -15 -5 -26 -28 -135 -31 -145 -2 -5 -5 -21 -8 -35 -3 -14
-11 -50 -18 -80 -7 -30 -13 -59 -14 -65 -1 -5 -3 -12 -4 -15 -3 -8 -10 -41
-25 -122 -8 -41 -21 -33 117 -69 93 -24 241 -37 388 -34 85 2 166 5 180 8 14
3 48 8 75 12 28 4 53 9 56 11 3 2 21 6 40 9 45 8 271 84 287 97 6 6 12 8 12 5
0 -17 371 205 390 234 3 4 23 22 45 39 137 109 302 297 417 475 43 67 122 204
123 215 1 3 15 34 32 70 42 87 90 208 99 245 4 17 11 36 17 43 5 6 7 12 4 12
-3 0 2 21 10 48 16 52 33 116 39 147 2 11 8 38 13 60 5 22 13 63 16 90 4 28 9
61 11 75 14 93 18 160 18 350 0 192 -3 248 -19 355 -2 17 -6 45 -9 63 -3 18
-7 45 -10 60 -3 15 -8 38 -10 52 -3 14 -7 34 -10 45 -3 11 -12 47 -19 80 -13
55 -28 108 -47 160 -24 66 -54 144 -65 170 -47 112 -71 162 -82 173 -7 7 -13
18 -13 24 0 6 -20 44 -45 86 -25 41 -45 78 -45 82 0 5 -3 10 -7 12 -5 2 -21
23 -38 48 -72 109 -252 315 -334 383 -196 161 -319 240 -501 320 -36 16 -147
57 -165 62 -5 1 -17 5 -25 8 -8 3 -28 8 -45 12 -16 3 -61 13 -100 21 -38 9
-90 18 -115 21 -66 9 -367 8 -425 -1 -82 -12 -87 -13 -160 -31 -38 -9 -78 -18
-87 -20 -9 -2 -26 -9 -37 -15 -12 -6 -21 -9 -21 -6 0 17 -271 -109 -368 -170
-29 -19 -55 -34 -58 -34 -2 0 -10 -5 -17 -10 -7 -6 -30 -24 -52 -40 -105 -79
-190 -155 -269 -239 -28 -30 -59 -62 -68 -72 -10 -11 -18 -23 -18 -29 0 -5 -4
-10 -8 -10 -5 0 -21 -18 -38 -40 -16 -23 -36 -49 -45 -60 -8 -10 -37 -52 -64
-94 -54 -84 -51 -84 -100 2 -11 17 -23 32 -27 32 -4 0 -8 6 -8 13 0 7 -9 23
-20 35 -11 12 -20 25 -20 31 0 5 -3 11 -7 13 -5 2 -28 28 -53 58 -143 177
-334 345 -517 454 -135 80 -390 185 -493 202 -14 2 -36 7 -50 10 -14 3 -38 8
-55 11 -16 2 -41 7 -55 10 -30 6 -387 13 -392 7z"/>
</g>
</svg>
