<svg width="1152" height="700" viewBox="0 0 1152 700" fill="none" xmlns="http://www.w3.org/2000/svg">
<g id="MacBook - 1">
<rect width="1152" height="700" fill="#592F2F"/>
<g id="mainLogo">
<g id="body-mainLogo">
<path id="left-ellipse" d="M360.446 592.72C316.846 606.043 270.635 600.972 229.903 578.394C189.172 555.816 156.513 517.17 137.645 469.22C118.776 421.269 114.9 367.07 126.694 316.108C138.487 265.145 165.2 220.667 202.157 190.459C239.113 160.25 283.958 146.235 328.843 150.867C373.728 155.5 415.793 178.483 447.675 215.796C479.557 253.109 499.226 302.373 503.237 354.967C507.249 407.56 495.349 460.132 469.62 503.479L399.164 446.049C413.392 422.078 419.973 393.006 417.754 363.922C415.536 334.838 404.659 307.594 387.028 286.96C369.397 266.326 346.136 253.616 321.314 251.055C296.493 248.493 271.693 256.243 251.257 272.949C230.82 289.654 216.048 314.25 209.526 342.432C203.004 370.615 205.147 400.587 215.582 427.104C226.016 453.62 244.076 474.991 266.601 487.477C289.125 499.963 314.68 502.767 338.791 495.399L360.446 592.72Z" fill="white"/>
<path id="right-ellipse" d="M578.554 592.72C622.153 606.043 668.362 600.972 709.093 578.396C749.824 555.82 782.483 517.176 801.352 469.227C820.222 421.279 824.1 367.081 812.309 316.12C800.518 265.158 773.808 220.679 736.855 190.468C699.902 160.257 655.059 146.238 610.175 150.866C565.291 155.493 523.225 178.471 491.34 215.779C459.455 253.086 439.782 302.347 435.765 354.938C431.747 407.529 443.641 460.101 469.364 503.452L539.827 446.034C525.602 422.061 519.025 392.989 521.247 363.906C523.469 334.823 534.348 307.582 551.98 286.951C569.612 266.319 592.875 253.612 617.696 251.054C642.516 248.495 667.315 256.247 687.75 272.954C708.185 289.661 722.955 314.257 729.476 342.439C735.996 370.621 733.852 400.592 723.417 427.108C712.982 453.623 694.922 474.993 672.398 487.478C649.873 499.963 624.32 502.767 600.209 495.399L578.554 592.72Z" fill="white"/>
<rect id="i-main" x="36" y="227" width="90" height="373" fill="white"/>
</g>
<rect id="i-dot" x="36" y="150" width="90" height="60" fill="white"/>
</g>
</g>
</svg>
